<svg width="1622" height="1329" viewBox="0 0 1622 1329" fill="none" xmlns="http://www.w3.org/2000/svg">
<path d="M111.25 1181.42C49.8086 1068.66 91.2759 927.372 203.871 865.841L233.938 921.02C151.775 965.921 121.514 1069.02 166.351 1151.3C211.187 1233.59 314.14 1263.89 396.304 1218.99L969.344 905.835L973.157 903.681C1052.43 857.71 1081.06 756.546 1036.93 675.551C992.797 594.556 892.35 563.932 810.85 605.82L806.979 607.867L776.911 552.687C889.505 491.156 1030.59 532.683 1092.03 645.439C1153.47 758.197 1112.01 899.484 999.412 961.014L426.371 1274.17C313.777 1335.7 172.692 1294.17 111.25 1181.42ZM776.911 552.687L806.979 607.867L233.938 921.02L203.871 865.841L776.911 552.687Z" fill="#FFD700"/>
<path d="M111.25 1181.42C49.8086 1068.66 91.2759 927.372 203.871 865.841L233.938 921.02C151.775 965.921 121.514 1069.02 166.351 1151.3C211.187 1233.59 314.14 1263.89 396.304 1218.99L969.344 905.835L973.157 903.681C1052.43 857.71 1081.06 756.546 1036.93 675.551C992.797 594.556 892.35 563.932 810.85 605.82L806.979 607.867L776.911 552.687C889.505 491.156 1030.59 532.683 1092.03 645.439C1153.47 758.197 1112.01 899.484 999.412 961.014L426.371 1274.17C313.777 1335.7 172.692 1294.17 111.25 1181.42ZM776.911 552.687L806.979 607.867L233.938 921.02L203.871 865.841L776.911 552.687Z" fill="url(#paint0_linear_218_9)"/>
<path d="M529.969 740.139C468.526 627.383 509.994 486.095 622.588 424.565L652.656 479.744C570.492 524.645 540.232 627.747 585.068 710.028C629.905 792.31 732.858 822.613 815.021 777.713L1388.06 464.558L1391.88 462.404C1471.15 416.434 1499.78 315.269 1455.65 234.274C1411.52 153.279 1311.07 122.655 1229.57 164.544L1225.69 166.59L1195.62 111.41C1308.23 49.8802 1449.31 91.407 1510.75 204.164C1572.19 316.92 1530.73 458.208 1418.13 519.737L845.089 832.892C732.495 894.422 591.411 852.895 529.969 740.139ZM1195.62 111.41L1225.69 166.59L652.656 479.744L622.588 424.565L1195.62 111.41Z" fill="#000080"/>
<path d="M529.969 740.139C468.526 627.383 509.994 486.095 622.588 424.565L652.656 479.744C570.492 524.645 540.232 627.747 585.068 710.028C629.905 792.31 732.858 822.613 815.021 777.713L1388.06 464.558L1391.88 462.404C1471.15 416.434 1499.78 315.269 1455.65 234.274C1411.52 153.279 1311.07 122.655 1229.57 164.544L1225.69 166.59L1195.62 111.41C1308.23 49.8802 1449.31 91.407 1510.75 204.164C1572.19 316.92 1530.73 458.208 1418.13 519.737L845.089 832.892C732.495 894.422 591.411 852.895 529.969 740.139ZM1195.62 111.41L1225.69 166.59L652.656 479.744L622.588 424.565L1195.62 111.41Z" fill="url(#paint1_linear_218_9)"/>
<path d="M1469.28 92.2917C1532.51 92.2917 1582.5 138.997 1582.5 195.131C1582.5 251.265 1532.51 297.97 1469.28 297.97C1406.05 297.97 1356.06 251.265 1356.06 195.131C1356.06 138.997 1406.05 92.2917 1469.28 92.2917Z" fill="#000080" stroke="white" stroke-width="1.5"/>
<path d="M323.979 991.054C322.294 991.054 321.451 990.21 321.451 988.523C321.451 986.273 322.855 983.742 325.664 980.928C328.473 977.553 331.001 976.147 333.247 976.709C341.673 976.709 349.538 976.991 356.84 977.553C364.705 977.553 371.726 977.553 377.905 977.553C398.127 977.553 413.855 976.709 425.09 975.022C436.887 972.772 445.874 968.553 452.054 962.365C458.794 955.614 464.411 945.77 468.905 932.831C473.4 919.893 478.455 902.736 484.072 881.359C498.115 830.73 510.474 779.54 521.147 727.786C532.381 675.469 542.493 623.435 551.48 571.681C552.604 565.493 553.446 559.586 554.008 553.961C555.132 548.336 555.693 543.554 555.693 539.616C555.693 524.99 550.919 515.427 541.369 510.927C532.382 506.426 516.372 504.176 493.341 504.176C459.637 504.176 431.831 515.146 409.924 537.085C388.016 558.462 369.479 587.713 354.312 624.841C353.751 626.529 352.627 627.372 350.942 627.372C349.818 627.372 348.414 626.529 346.729 624.841C345.605 622.591 345.325 620.34 345.886 618.09C348.695 611.34 351.784 602.34 355.155 591.088C358.525 579.275 362.738 566.618 367.794 553.117C373.973 536.803 379.309 521.896 383.803 508.395C388.859 494.332 395.318 483.081 403.183 474.643C411.047 466.205 422.563 462.548 437.729 463.673C459.076 465.361 486.039 467.33 518.619 469.58C551.761 471.268 586.308 472.111 622.258 472.111C642.481 472.111 660.456 471.83 676.184 471.268C692.475 470.705 709.046 469.862 725.898 468.736C742.75 467.611 762.972 466.486 786.565 465.361C801.17 464.235 811.281 466.205 816.898 471.268C822.515 475.768 825.324 483.643 825.324 494.894C825.324 501.645 824.482 509.801 822.796 519.365C820.55 532.303 818.583 543.835 816.898 553.961C815.774 564.087 814.652 574.494 813.528 585.182C812.966 595.87 811.561 608.808 809.315 623.997C808.753 627.372 806.787 629.06 803.417 629.06C801.731 629.06 800.046 627.934 798.361 625.685C797.237 623.435 796.957 620.34 797.518 616.403C799.204 605.152 800.046 595.308 800.046 586.869C800.046 558.742 793.587 539.334 780.667 528.647C767.746 517.395 750.894 511.77 730.111 511.77C703.148 511.77 683.206 514.864 670.286 521.052C657.366 527.241 648.66 533.991 644.166 541.304C639.672 548.054 635.74 553.399 632.369 557.336C630.684 559.586 627.875 568.587 623.943 584.338C620.012 600.089 615.517 620.06 610.462 644.249C605.406 668.437 600.351 694.033 595.295 721.035C590.24 748.037 585.465 774.195 580.971 799.509C576.477 824.824 572.826 846.481 570.017 864.483C567.208 882.484 565.804 894.298 565.804 899.923C565.804 903.298 565.523 907.799 564.962 913.424C564.4 918.487 564.119 924.112 564.119 930.3C564.119 939.863 565.523 948.864 568.332 957.302C571.141 965.74 577.319 970.803 586.869 972.49C591.363 973.053 598.947 973.616 609.619 974.178C620.854 974.74 633.212 975.303 646.694 975.866C660.736 976.428 673.938 976.709 686.296 976.709C698.653 976.709 707.922 976.428 714.101 975.866C716.91 975.866 718.314 976.991 718.314 979.241C718.314 981.491 716.91 984.022 714.101 986.835C711.292 989.648 708.484 991.054 705.675 991.054C691.07 991.054 672.533 990.773 650.064 990.21C627.595 989.648 604.002 989.085 579.286 988.523C555.132 987.961 532.662 987.679 511.878 987.679C504.576 987.679 497.273 987.679 489.97 987.679C483.23 987.679 477.05 987.961 471.433 988.523C463.569 988.523 451.492 988.804 435.202 989.367C418.911 989.929 400.936 990.492 381.275 991.054C361.614 991.054 342.797 991.054 324.821 991.054H323.979Z" fill="black"/>
<path d="M147.454 1041.58C212.311 1041.58 265.945 1098.82 265.945 1170.79C265.945 1242.75 212.311 1299.99 147.454 1299.99C82.5976 1299.99 28.9642 1242.75 28.9642 1170.79C28.9642 1098.82 82.5976 1041.58 147.454 1041.58Z" fill="#FFD700" stroke="white" stroke-width="1.5"/>
<path d="M1109.7 983.46C1078.81 983.46 1048.75 979.241 1019.54 970.803C990.895 962.365 965.335 948.864 942.866 930.3C920.398 911.736 902.983 887.547 890.625 857.732C878.268 829.043 873.492 798.666 876.301 766.601C879.11 728.348 889.222 692.346 906.635 658.593C924.048 624.841 946.518 594.182 974.043 566.618C1002.13 539.054 1033.02 515.427 1066.73 495.738C1100.99 476.049 1136.11 460.86 1172.05 450.172C1208.57 439.484 1243.67 434.14 1277.38 434.14H1280.75C1290.86 434.14 1302.66 435.265 1316.14 437.515C1330.18 439.765 1342.54 444.266 1353.21 451.016C1363.88 457.767 1369.22 468.174 1369.22 482.237C1369.22 489.55 1367.54 497.144 1364.17 505.02C1360.24 513.458 1356.58 522.178 1353.21 531.178C1349.84 539.616 1346.47 548.336 1343.1 557.336L1317.82 623.997L1307.71 616.403C1307.71 616.403 1309.11 612.465 1311.92 604.59C1315.29 596.151 1318.38 586.588 1321.19 575.9C1324.56 565.212 1326.53 556.492 1327.09 549.742C1328.78 529.49 1323.72 515.146 1311.92 506.708C1300.69 497.707 1286.65 492.363 1269.79 490.675C1252.94 488.988 1236.93 488.144 1221.77 488.144C1189.75 488.144 1158.01 493.488 1126.55 504.176C1095.09 514.864 1066.17 530.053 1039.77 549.742C1013.93 569.431 992.861 593.338 976.57 621.466C960.28 649.03 950.731 680.251 947.922 715.129C947.361 719.066 947.079 723.004 947.079 726.942C947.079 730.317 947.079 733.692 947.079 737.068C947.079 792.759 963.089 836.356 995.108 867.858C1027.13 899.361 1076.56 915.112 1143.4 915.112C1174.87 915.112 1208 908.923 1242.83 896.548C1278.22 883.609 1308 866.171 1332.15 844.231C1338.33 838.606 1343.94 832.7 1349 826.511C1354.61 820.323 1360.24 814.136 1365.85 807.948L1372.59 818.917C1372.59 818.917 1369.51 822.292 1363.32 829.043C1357.14 835.231 1349.56 843.388 1340.57 853.513C1331.59 863.077 1322.59 872.921 1313.61 883.047C1305.18 893.172 1298.73 901.611 1294.23 908.361C1284.12 922.424 1273.72 935.081 1263.05 946.332C1252.38 957.584 1238.06 965.458 1220.08 969.959C1202.67 974.46 1184.41 977.835 1165.31 980.085C1146.22 982.335 1127.68 983.46 1109.7 983.46Z" fill="black"/>
<path d="M737.848 643.926L374.096 838.522L371.016 775.002L734.767 580.407L737.848 643.926Z" fill="#FFD700"/>
<path d="M737.848 643.926L374.096 838.522L371.016 775.002L734.767 580.407L737.848 643.926Z" fill="url(#paint2_linear_218_9)" fill-opacity="0.2"/>
<path fill-rule="evenodd" clip-rule="evenodd" d="M1074.1 709.581L837.435 838.655V767.191L1074.1 638.106V709.581Z" fill="#000080"/>
<path fill-rule="evenodd" clip-rule="evenodd" d="M1074.1 709.581L837.435 838.655V767.191L1074.1 638.106V709.581Z" fill="url(#paint3_linear_218_9)"/>
<path d="M840.888 822.368C837.597 824.108 834.58 824.786 831.84 824.405C829.099 824.024 826.64 822.859 824.462 820.909C822.314 818.942 820.455 816.466 818.882 813.481C817.72 811.272 816.702 808.889 815.83 806.328C814.99 803.751 814.416 801.153 814.107 798.533C813.83 795.897 813.916 793.348 814.366 790.884C814.83 788.373 815.786 786.08 817.232 784.005C818.679 781.929 820.722 780.194 823.363 778.799C825.319 777.766 827.135 777.144 828.811 776.935C830.487 776.726 831.971 776.757 833.266 777.027C834.542 777.268 835.555 777.607 836.302 778.047C837.081 778.47 837.537 778.807 837.667 779.056C837.83 779.367 837.747 779.848 837.415 780.5C837.099 781.104 836.739 781.513 836.335 781.726C836.024 781.891 835.56 781.838 834.941 781.568C834.338 781.251 833.577 780.937 832.66 780.626C831.726 780.285 830.608 780.16 829.306 780.251C827.989 780.311 826.461 780.8 824.722 781.719C822.64 782.818 821.094 784.29 820.082 786.136C819.07 787.983 818.462 790.032 818.26 792.285C818.057 794.539 818.146 796.857 818.528 799.24C818.94 801.605 819.523 803.88 820.277 806.066C821.046 808.204 821.864 810.097 822.732 811.746C823.584 813.363 824.597 814.835 825.772 816.162C826.947 817.489 828.257 818.546 829.704 819.333C831.134 820.088 832.674 820.487 834.323 820.53C835.988 820.525 837.737 820.038 839.568 819.071C841.37 818.12 842.874 816.908 844.083 815.434C845.307 813.914 846.188 812.157 846.726 810.164C846.857 809.657 846.969 809.082 847.065 808.434C847.145 807.757 847.386 807.311 847.79 807.098C848.132 806.917 848.523 806.87 848.965 806.954C849.437 807.023 849.789 807.275 850.017 807.71C850.132 807.928 850.171 808.265 850.134 808.722C849.901 811.746 848.97 814.425 847.339 816.756C845.71 819.087 843.559 820.958 840.888 822.368ZM875.645 804.013C873.253 805.276 871.022 805.938 868.951 805.998C866.879 806.06 864.969 805.637 863.222 804.731C861.459 803.794 859.853 802.516 858.405 800.895C856.971 799.228 855.689 797.322 854.559 795.176C853.462 793.092 852.477 790.77 851.605 788.21C850.764 785.633 850.173 783.004 849.832 780.322C849.492 777.64 849.506 775.028 849.875 772.489C850.276 769.932 851.152 767.602 852.504 765.497C853.887 763.374 855.867 761.633 858.445 760.271C860.867 758.993 863.115 758.322 865.185 758.262C867.257 758.201 869.167 758.624 870.914 759.53C872.661 760.436 874.243 761.707 875.661 763.343C877.077 764.979 878.352 766.87 879.482 769.016C880.595 771.131 881.573 773.477 882.413 776.054C883.285 778.614 883.9 781.251 884.257 783.963C884.598 786.646 884.568 789.265 884.168 791.821C883.798 794.361 882.923 796.692 881.539 798.813C880.187 800.919 878.222 802.653 875.645 804.013ZM874.445 800.831C876.495 799.749 877.986 798.285 878.921 796.44C879.869 794.549 880.397 792.462 880.505 790.178C880.595 787.865 880.404 785.501 879.928 783.09C879.451 780.679 878.805 778.396 877.989 776.244C877.204 774.075 876.402 772.212 875.583 770.658C874.765 769.103 873.815 767.677 872.735 766.378C871.654 765.081 870.43 764.038 869.062 763.25C867.726 762.445 866.272 762.021 864.701 761.976C863.113 761.901 861.419 762.339 859.617 763.29C857.567 764.372 856.068 765.859 855.121 767.752C854.186 769.595 853.673 771.675 853.583 773.989C853.474 776.272 853.659 778.619 854.136 781.031C854.612 783.442 855.242 785.732 856.027 787.902C856.843 790.055 857.661 791.908 858.479 793.464C859.298 795.018 860.248 796.444 861.328 797.742C862.408 799.04 863.617 800.091 864.954 800.895C866.321 801.683 867.798 802.116 869.387 802.191C870.958 802.236 872.644 801.783 874.445 800.831ZM904.124 788.974C903.44 789.334 902.925 789.487 902.579 789.431C902.232 789.376 901.928 789.099 901.666 788.602C901.583 788.446 901.494 788.275 901.396 788.089C901.312 787.854 901.228 787.62 901.145 787.386L885.915 747.612C885.699 747.051 885.719 746.563 885.977 746.148C886.267 745.718 886.676 745.362 887.203 745.084L888.228 744.543C888.569 744.362 888.976 744.267 889.447 744.257C889.932 744.199 890.367 744.347 890.752 744.7L921.234 770.815L908.303 737.101C907.97 736.243 907.774 735.571 907.718 735.085C907.674 734.551 908.072 734.063 908.911 733.62C909.625 733.243 910.14 733.09 910.455 733.162C910.803 733.218 911.114 733.509 911.393 734.038C911.474 734.193 911.549 734.373 911.617 734.576C911.699 734.731 911.789 734.941 911.889 735.207L927.026 775.03C927.409 776.06 927.057 776.862 925.97 777.435L925.086 777.903C924.682 778.116 924.229 778.236 923.727 778.262C923.256 778.273 922.804 778.094 922.372 777.726L891.65 751.381L904.732 785.493C905.164 786.615 905.314 787.39 905.182 787.817C905.098 788.26 904.745 788.646 904.124 788.974ZM944.173 767.822C943.49 768.183 942.975 768.336 942.628 768.281C942.282 768.225 941.977 767.949 941.715 767.451C941.633 767.296 941.544 767.125 941.445 766.938C941.361 766.704 941.278 766.47 941.194 766.236L925.965 726.462C925.748 725.9 925.769 725.413 926.027 724.998C926.317 724.567 926.724 724.212 927.253 723.933L928.278 723.392C928.619 723.211 929.026 723.116 929.497 723.106C929.982 723.049 930.417 723.196 930.801 723.55L961.284 749.665L948.352 715.95C948.019 715.093 947.824 714.421 947.766 713.935C947.724 713.401 948.121 712.913 948.96 712.47C949.675 712.092 950.19 711.939 950.505 712.011C950.851 712.067 951.164 712.359 951.442 712.887C951.524 713.043 951.599 713.222 951.666 713.425C951.748 713.58 951.839 713.791 951.939 714.056L967.075 753.879C967.459 754.909 967.107 755.711 966.02 756.284L965.135 756.753C964.731 756.966 964.278 757.085 963.777 757.112C963.306 757.122 962.854 756.944 962.422 756.575L931.7 730.23L944.781 764.342C945.214 765.465 945.364 766.24 945.232 766.667C945.147 767.109 944.794 767.494 944.173 767.822ZM983.692 746.117C983.133 746.413 982.656 746.486 982.26 746.337C981.864 746.188 981.575 745.903 981.393 745.483L966.336 706.035C966.074 705.538 965.994 705.083 966.095 704.673C966.196 704.261 966.433 703.958 966.806 703.76L984.786 694.264C985.221 694.035 985.62 693.964 985.982 694.05C986.36 694.089 986.664 694.327 986.893 694.761C987.221 695.383 987.326 695.884 987.208 696.264C987.091 696.645 986.706 697.007 986.054 697.351L970.403 705.617L976.555 721.03L989.457 714.215C989.954 713.953 990.391 713.842 990.769 713.881C991.178 713.903 991.497 714.132 991.727 714.567C992.054 715.19 992.152 715.714 992.019 716.141C991.902 716.522 991.517 716.884 990.865 717.229L977.683 724.19L984.402 741.926L1001.03 733.144C1001.84 732.718 1002.49 732.971 1002.98 733.903C1003.24 734.401 1003.32 734.856 1003.22 735.266C1003.12 735.677 1002.88 735.981 1002.51 736.178L983.692 746.117ZM1027.85 723.63C1024.56 725.368 1021.55 726.048 1018.8 725.667C1016.06 725.285 1013.6 724.119 1011.43 722.17C1009.28 720.203 1007.42 717.727 1005.85 714.741C1004.68 712.534 1003.67 710.149 1002.8 707.589C1001.95 705.012 1001.38 702.414 1001.07 699.794C1000.8 697.159 1000.88 694.608 1001.33 692.145C1001.79 689.635 1002.75 687.341 1004.2 685.265C1005.64 683.189 1007.69 681.454 1010.33 680.061C1012.28 679.027 1014.1 678.406 1015.78 678.197C1017.45 677.987 1018.94 678.018 1020.23 678.289C1021.51 678.528 1022.52 678.868 1023.27 679.308C1024.05 679.732 1024.5 680.067 1024.63 680.316C1024.8 680.627 1024.71 681.109 1024.38 681.761C1024.06 682.366 1023.7 682.775 1023.3 682.988C1022.99 683.151 1022.52 683.099 1021.91 682.829C1021.3 682.512 1020.54 682.198 1019.62 681.888C1018.69 681.546 1017.57 681.422 1016.27 681.512C1014.95 681.572 1013.42 682.062 1011.69 682.979C1009.6 684.078 1008.06 685.551 1007.05 687.398C1006.03 689.244 1005.43 691.294 1005.22 693.547C1005.02 695.8 1005.11 698.118 1005.49 700.5C1005.9 702.866 1006.49 705.142 1007.24 707.328C1008.01 709.466 1008.83 711.359 1009.7 713.006C1010.55 714.624 1011.56 716.096 1012.74 717.423C1013.91 718.751 1015.22 719.806 1016.67 720.593C1018.1 721.349 1019.64 721.748 1021.29 721.79C1022.95 721.786 1024.7 721.3 1026.53 720.333C1028.33 719.381 1029.84 718.169 1031.05 716.696C1032.27 715.175 1033.15 713.419 1033.69 711.425C1033.82 710.919 1033.93 710.342 1034.03 709.695C1034.11 709.017 1034.35 708.572 1034.75 708.359C1035.1 708.179 1035.49 708.13 1035.93 708.216C1036.4 708.284 1036.75 708.535 1036.98 708.971C1037.1 709.189 1037.14 709.526 1037.1 709.982C1036.87 713.007 1035.93 715.685 1034.3 718.018C1032.67 720.349 1030.52 722.22 1027.85 723.63ZM1057.21 708.128C1056.71 708.391 1056.24 708.543 1055.77 708.584C1055.34 708.657 1054.96 708.397 1054.66 707.806C1054.66 707.806 1054.62 707.728 1054.53 707.573C1054.48 707.401 1054.31 706.972 1054.04 706.287C1053.78 705.584 1053.35 704.437 1052.76 702.846C1052.16 701.255 1051.32 699.056 1050.23 696.248C1049.17 693.393 1047.79 689.751 1046.09 685.321C1044.41 680.844 1042.34 675.377 1039.89 668.918L1031.09 673.568C1030.65 673.798 1030.23 673.901 1029.82 673.879C1029.43 673.808 1029.12 673.571 1028.91 673.167C1028.31 672.016 1028.58 671.138 1029.73 670.531L1051.11 659.239C1051.54 659.01 1051.96 658.93 1052.35 658.999C1052.73 659.038 1053.03 659.276 1053.26 659.711C1053.85 660.831 1053.58 661.686 1052.47 662.277L1043.48 667.024L1058.14 705.725C1058.4 706.349 1058.4 706.844 1058.15 707.212C1057.95 707.593 1057.64 707.899 1057.21 708.128ZM1080.95 695.591C1080.45 695.853 1079.98 696.005 1079.51 696.046C1079.08 696.119 1078.7 695.859 1078.4 695.268C1078.4 695.268 1078.36 695.19 1078.27 695.035C1078.22 694.863 1078.05 694.419 1077.75 693.702C1077.48 692.969 1077.03 691.775 1076.4 690.122C1075.79 688.421 1074.9 686.08 1073.77 683.102C1072.63 680.092 1071.15 676.238 1069.35 671.544C1067.59 666.832 1065.4 661.069 1062.81 654.252C1062.55 653.597 1062.57 653.07 1062.87 652.67C1063.2 652.254 1063.62 651.915 1064.12 651.652C1064.56 651.423 1064.95 651.311 1065.32 651.32C1065.69 651.28 1066 651.494 1066.24 651.96C1066.24 651.96 1066.31 652.123 1066.44 652.451C1066.56 652.747 1066.78 653.364 1067.12 654.3C1067.49 655.22 1068.01 656.592 1068.7 658.418C1069.37 660.243 1070.29 662.661 1071.45 665.672C1072.59 668.682 1074.02 672.441 1075.71 676.949C1077.44 681.442 1079.5 686.855 1081.88 693.187C1082.14 693.812 1082.14 694.307 1081.9 694.674C1081.69 695.055 1081.38 695.361 1080.95 695.591ZM1109.54 680.487C1107.15 681.75 1104.92 682.411 1102.85 682.472C1100.78 682.532 1098.87 682.11 1097.12 681.204C1095.36 680.268 1093.75 678.989 1092.3 677.369C1090.87 675.702 1089.59 673.795 1088.46 671.649C1087.36 669.565 1086.38 667.243 1085.51 664.684C1084.67 662.107 1084.08 659.477 1083.74 656.795C1083.39 654.113 1083.41 651.502 1083.78 648.962C1084.18 646.406 1085.05 644.075 1086.4 641.969C1087.78 639.848 1089.77 638.107 1092.34 636.745C1094.77 635.466 1097.02 634.796 1099.08 634.735C1101.16 634.675 1103.07 635.097 1104.81 636.002C1106.56 636.908 1108.14 638.18 1109.56 639.816C1110.98 641.452 1112.25 643.344 1113.39 645.489C1114.49 647.604 1115.47 649.95 1116.32 652.526C1117.19 655.087 1117.8 657.723 1118.16 660.437C1118.5 663.118 1118.46 665.737 1118.06 668.294C1117.69 670.834 1116.82 673.165 1115.44 675.287C1114.09 677.392 1112.12 679.125 1109.54 680.487ZM1108.34 677.305C1110.4 676.222 1111.89 674.759 1112.82 672.914C1113.77 671.022 1114.29 668.934 1114.41 666.652C1114.49 664.338 1114.3 661.975 1113.83 659.564C1113.36 657.152 1112.7 654.869 1111.89 652.717C1111.1 650.548 1110.3 648.686 1109.48 647.131C1108.67 645.575 1107.72 644.149 1106.64 642.852C1105.55 641.554 1104.33 640.512 1102.96 639.723C1101.62 638.919 1100.17 638.494 1098.6 638.45C1097.01 638.374 1095.32 638.811 1093.52 639.763C1091.47 640.845 1089.97 642.332 1089.03 644.224C1088.09 646.069 1087.57 648.148 1087.49 650.462C1087.37 652.745 1087.56 655.093 1088.04 657.504C1088.51 659.916 1089.14 662.206 1089.93 664.374C1090.74 666.527 1091.56 668.382 1092.39 669.936C1093.2 671.491 1094.14 672.918 1095.23 674.215C1096.31 675.513 1097.51 676.564 1098.85 677.368C1100.22 678.157 1101.7 678.589 1103.29 678.664C1104.86 678.709 1106.54 678.255 1108.34 677.305ZM1138.02 665.446C1137.34 665.807 1136.82 665.96 1136.48 665.905C1136.14 665.849 1135.83 665.573 1135.57 665.075C1135.48 664.92 1135.4 664.749 1135.29 664.562C1135.21 664.328 1135.13 664.094 1135.04 663.86L1119.81 624.086C1119.6 623.525 1119.62 623.036 1119.88 622.622C1120.17 622.19 1120.58 621.836 1121.11 621.557L1122.13 621.016C1122.47 620.836 1122.88 620.74 1123.35 620.73C1123.84 620.673 1124.27 620.82 1124.66 621.174L1155.14 647.288L1142.2 613.574C1141.87 612.716 1141.68 612.045 1141.61 611.558C1141.57 611.025 1141.97 610.536 1142.81 610.093C1143.52 609.716 1144.04 609.564 1144.35 609.636C1144.7 609.69 1145.02 609.983 1145.29 610.511C1145.37 610.667 1145.45 610.846 1145.52 611.049C1145.6 611.205 1145.69 611.415 1145.8 611.68L1160.93 651.503C1161.31 652.533 1160.96 653.334 1159.87 653.909L1158.98 654.376C1158.58 654.589 1158.13 654.71 1157.62 654.736C1157.16 654.747 1156.71 654.567 1156.28 654.199L1125.55 627.853L1138.63 661.965C1139.07 663.089 1139.21 663.864 1139.09 664.291C1139 664.733 1138.64 665.118 1138.02 665.446Z" fill="white"/>
<path d="M541.467 746.018C540.98 746.3 540.512 746.47 540.059 746.528C539.624 746.617 539.239 746.373 538.905 745.794C538.905 745.794 538.862 745.718 538.774 745.566C538.717 745.396 538.534 744.974 538.226 744.299C537.949 743.607 537.48 742.477 536.82 740.91C536.161 739.343 535.236 737.177 534.049 734.414C532.873 731.602 531.354 728.015 529.488 723.653C527.636 719.244 525.363 713.86 522.671 707.499L514.05 712.482C513.624 712.729 513.207 712.848 512.797 712.841C512.4 712.786 512.089 712.561 511.86 712.165C511.211 711.038 511.448 710.15 512.574 709.499L533.508 697.398C533.934 697.152 534.345 697.056 534.742 697.111C535.121 697.136 535.433 697.361 535.679 697.787C536.31 698.884 536.079 699.748 534.984 700.381L526.182 705.469L542.313 743.582C542.585 744.195 542.606 744.69 542.378 745.066C542.197 745.455 541.892 745.773 541.467 746.018ZM564.712 732.582C564.225 732.863 563.756 733.033 563.303 733.091C562.868 733.181 562.483 732.936 562.15 732.357C562.15 732.357 562.106 732.281 562.019 732.129C561.961 731.959 561.77 731.522 561.445 730.817C561.15 730.093 560.655 728.919 559.96 727.291C559.277 725.615 558.313 723.31 557.069 720.376C555.806 717.412 554.187 713.618 552.211 708.995C550.267 704.355 547.866 698.68 545.011 691.967C544.72 691.323 544.72 690.795 545.01 690.384C545.331 689.956 545.735 689.6 546.221 689.318C546.647 689.073 547.04 688.947 547.402 688.941C547.776 688.887 548.095 689.089 548.358 689.545C548.375 689.576 548.404 689.66 548.444 689.799C548.514 689.922 548.668 690.259 548.906 690.812C549.125 691.334 549.493 692.218 550.008 693.463C550.505 694.678 551.22 696.375 552.153 698.556C553.085 700.736 554.285 703.555 555.75 707.011L573.766 696.597C572.758 694.216 571.66 691.643 570.472 688.88C569.315 686.098 568.003 682.979 566.538 679.523C566.249 678.878 566.248 678.351 566.538 677.94C566.858 677.51 567.262 677.156 567.748 676.874C568.174 676.629 568.568 676.502 568.929 676.497C569.303 676.443 569.622 676.645 569.885 677.101C569.885 677.101 569.958 677.262 570.102 677.584C570.231 677.875 570.48 678.483 570.849 679.406C571.249 680.311 571.826 681.663 572.578 683.46C573.331 685.259 574.339 687.639 575.6 690.603C576.863 693.568 578.429 697.27 580.3 701.71C582.2 706.132 584.462 711.462 587.085 717.7C587.357 718.314 587.379 718.809 587.149 719.185C586.968 719.573 586.665 719.892 586.239 720.138C585.753 720.418 585.283 720.589 584.831 720.647C584.396 720.737 584.012 720.492 583.678 719.913C583.678 719.913 583.634 719.837 583.546 719.685C583.489 719.515 583.315 719.108 583.025 718.464C582.765 717.802 582.325 716.757 581.705 715.33C581.115 713.884 580.281 711.91 579.204 709.407C578.108 706.874 576.726 703.634 575.059 699.686L557.089 710.073L565.557 730.144C565.829 730.758 565.852 731.253 565.622 731.629C565.441 732.018 565.137 732.336 564.712 732.582ZM604.103 709.811C603.617 710.092 603.147 710.262 602.694 710.321C602.259 710.41 601.876 710.165 601.542 709.587C601.542 709.587 601.498 709.511 601.41 709.358C601.352 709.188 601.162 708.751 600.836 708.046C600.541 707.323 600.046 706.148 599.351 704.52C598.669 702.844 597.705 700.539 596.46 697.606C595.197 694.641 593.578 690.848 591.602 686.225C589.658 681.585 587.258 675.908 584.402 669.197C584.112 668.552 584.112 668.025 584.402 667.614C584.723 667.184 585.126 666.83 585.613 666.548C586.038 666.303 586.431 666.176 586.793 666.171C587.167 666.116 587.486 666.317 587.75 666.774C587.75 666.774 587.821 666.935 587.967 667.257C588.094 667.549 588.343 668.157 588.713 669.08C589.114 669.985 589.69 671.336 590.442 673.134C591.195 674.932 592.202 677.313 593.465 680.277C594.727 683.241 596.294 686.943 598.164 691.384C600.064 695.806 602.326 701.136 604.948 707.374C605.221 707.988 605.243 708.482 605.013 708.859C604.832 709.247 604.529 709.565 604.103 709.811ZM629.37 695.206C627.879 696.067 626.282 696.706 624.576 697.124C622.885 697.493 621.171 697.509 619.437 697.172C618.434 696.98 617.389 696.61 616.303 696.061C615.229 695.464 614.446 694.739 613.954 693.887C613.709 693.46 613.621 693.024 613.688 692.579C613.737 692.103 614.006 691.725 614.493 691.444C615.071 691.109 615.656 691.177 616.251 691.645C616.875 692.097 617.603 692.549 618.432 693.003C619.872 693.673 621.315 693.996 622.761 693.972C624.189 693.918 625.784 693.381 627.548 692.362C629.22 691.395 630.496 690.232 631.373 688.871C632.264 687.463 632.741 685.97 632.804 684.391C632.85 682.781 632.424 681.2 631.529 679.647C630.81 678.399 629.787 677.468 628.46 676.854C627.134 676.241 625.636 675.787 623.967 675.494C622.28 675.17 620.511 674.914 618.659 674.726C616.838 674.52 615.067 674.225 613.345 673.84C611.606 673.424 610.011 672.803 608.562 671.976C607.113 671.15 605.94 669.96 605.045 668.407C603.799 666.246 603.281 664.15 603.489 662.121C603.711 660.045 604.493 658.13 605.835 656.38C607.19 654.582 608.933 653.068 611.061 651.838C612.612 650.941 614.229 650.371 615.913 650.129C617.61 649.838 619.12 649.818 620.439 650.07C621.76 650.321 622.64 650.828 623.079 651.589C623.623 652.533 623.469 653.251 622.617 653.744C622.192 653.989 621.646 654.061 620.98 653.96C620.342 653.841 619.589 653.728 618.717 653.622C617.877 653.5 616.91 653.51 615.818 653.655C614.756 653.781 613.571 654.223 612.263 654.979C610.044 656.262 608.586 657.916 607.889 659.943C607.193 661.97 607.458 664.049 608.687 666.18C609.372 667.368 610.353 668.262 611.631 668.862C612.923 669.415 614.403 669.838 616.072 670.131C617.755 670.377 619.506 670.603 621.327 670.808C623.13 670.984 624.902 671.279 626.641 671.694C628.411 672.092 630.023 672.744 631.477 673.649C632.943 674.507 634.142 675.742 635.073 677.355C636.389 679.639 637.004 681.902 636.918 684.144C636.845 686.338 636.151 688.404 634.835 690.342C633.533 692.231 631.711 693.852 629.37 695.206Z" fill="black"/>
<path d="M1169.1 421.905C1169.1 447.854 1058.28 468.895 921.591 468.895C784.897 468.895 674.083 447.855 674.078 421.905H1169.1Z" fill="url(#paint4_linear_218_9)"/>
<path d="M732.006 343.758C712.924 186.535 674.885 331.916 676.656 405.328C676.788 410.808 681.366 414.956 686.84 414.956H1156.44C1160.08 414.956 1161.68 394.244 1139.01 311.395C1119.41 207.836 1104.16 261.773 1097.62 343.758C1091.09 425.743 1082.38 356.703 1047.52 279.033C1021.12 220.208 992.226 312.726 999.08 369.13C999.721 374.404 996.439 377.558 994.57 372.586C989.468 359.006 983.91 322.602 953.4 269.545C947.558 259.387 925.639 267.074 924.347 278.725C919.413 323.233 900.598 371.309 868.929 378.278C834.202 385.92 827.882 327.714 820.535 278.188C818.881 267.044 803.041 267.017 799.405 277.68C779.276 336.699 739.954 409.238 732.006 343.758Z" stroke="url(#paint5_linear_218_9)" stroke-width="3"/>
<defs>
<linearGradient id="paint0_linear_218_9" x1="1153.31" y1="711.964" x2="694.969" y2="890.827" gradientUnits="userSpaceOnUse">
<stop offset="0.101952" stop-color="#000080"/>
<stop offset="1" stop-color="#FFD700"/>
</linearGradient>
<linearGradient id="paint1_linear_218_9" x1="742.539" y1="142.393" x2="309.76" y2="917.113" gradientUnits="userSpaceOnUse">
<stop stop-color="#000080"/>
<stop offset="1" stop-color="#FFD700"/>
</linearGradient>
<linearGradient id="paint2_linear_218_9" x1="679.344" y1="733.06" x2="560.117" y2="829.299" gradientUnits="userSpaceOnUse">
<stop stop-color="#000080"/>
<stop offset="1" stop-color="#FFD700"/>
</linearGradient>
<linearGradient id="paint3_linear_218_9" x1="742.539" y1="833.262" x2="1042.83" y2="712.264" gradientUnits="userSpaceOnUse">
<stop stop-color="#FFD700"/>
<stop offset="0.405498" stop-color="#000080"/>
</linearGradient>
<linearGradient id="paint4_linear_218_9" x1="674.078" y1="445.4" x2="1169.1" y2="445.4" gradientUnits="userSpaceOnUse">
<stop stop-color="#FFD700"/>
<stop offset="1" stop-color="#000080"/>
</linearGradient>
<linearGradient id="paint5_linear_218_9" x1="916.329" y1="253.143" x2="916.329" y2="414.956" gradientUnits="userSpaceOnUse">
<stop stop-color="#000080"/>
<stop offset="1" stop-color="#FFD700"/>
</linearGradient>
</defs>
</svg>
